<?xml version="1.0" encoding="UTF-8"?><svg id="a" xmlns="http://www.w3.org/2000/svg" viewBox="0 0 235.41 310.91"><defs><style>.b{fill:#fff;stroke-width:2px;}.b,.c,.d{stroke:#231f20;stroke-miterlimit:10;}.c{fill:#fff200;}.d{fill:#1c75bc;stroke-width:4px;}.e{fill:#231f20;}</style></defs><polygon class="c" points="2 255.86 63.58 233.51 65.39 296.6 154.93 157.28 91.54 116.54 2 255.86"/><polygon class="c" points="218.91 262.75 160.73 242.48 155.55 303.55 65.89 164.3 129.25 123.51 218.91 262.75"/><path class="d" d="M221.66,95.41l-20.2,15.76c-3.39,2.65-3.39,7.78,.02,10.42l20.25,15.7c12.71,9.86,5.34,30.22-10.74,29.65l-25.61-.91c-4.3-.15-7.6,3.79-6.69,7.99l5.42,25.04c3.4,15.72-15.34,26.58-27.29,15.81l-19.03-17.16c-3.2-2.88-8.25-1.98-10.26,1.83l-11.95,22.67c-7.5,14.23-28.84,10.5-31.07-5.43l-3.55-25.38c-.6-4.26-5.05-6.82-9.03-5.2l-23.72,9.69c-14.89,6.08-28.84-10.49-20.31-24.13l13.59-21.72c2.28-3.65,.52-8.47-3.58-9.79l-24.4-7.83c-15.32-4.91-15.35-26.58-.05-31.54l24.38-7.9c4.1-1.33,5.84-6.16,3.55-9.8l-13.66-21.68c-8.57-13.61,5.32-30.23,20.23-24.19l23.75,9.61c3.99,1.62,8.43-.96,9.02-5.23l3.47-25.39c2.18-15.94,23.51-19.73,31.05-5.52l12.02,22.63c2.02,3.8,7.08,4.69,10.27,1.79l18.98-17.22c11.92-10.81,30.69,0,27.34,15.73l-5.34,25.06c-.9,4.21,2.41,8.14,6.71,7.97l25.61-.99c16.07-.62,23.51,19.72,10.83,29.62Z"/><circle class="b" cx="115.09" cy="116.54" r="66.19"/><path class="e" d="M136.72,88.8h-32.67v17.58h30.08c2.21,0,3.87,.5,4.96,1.49,1.09,.99,1.64,2.3,1.64,3.93s-.54,2.95-1.61,3.98-2.73,1.54-4.98,1.54h-30.08v20.36h33.79c2.28,0,4,.53,5.15,1.59,1.16,1.06,1.73,2.47,1.73,4.22s-.58,3.07-1.73,4.13c-1.16,1.06-2.87,1.59-5.15,1.59h-39.4c-3.16,0-5.43-.7-6.81-2.1-1.38-1.4-2.08-3.66-2.08-6.79v-53.81c0-2.08,.31-3.78,.93-5.1,.62-1.32,1.59-2.28,2.91-2.88,1.32-.6,3-.9,5.05-.9h38.28c2.31,0,4.03,.51,5.15,1.54s1.68,2.37,1.68,4.03-.56,3.05-1.68,4.08-2.84,1.54-5.15,1.54Z"/></svg>