<?xml version="1.0" encoding="UTF-8"?><svg id="a" xmlns="http://www.w3.org/2000/svg" viewBox="0 0 234.66 319.29"><defs><style>.b{fill:#fff;stroke-width:2px;}.b,.c,.d{stroke:#231f20;stroke-miterlimit:10;}.c{fill:#fff200;}.d{fill:#ef4136;stroke-width:4px;}.e{fill:#231f20;}</style></defs><polygon class="c" points="6.48 270.1 68.06 247.75 69.87 310.84 159.41 171.52 96.02 130.78 6.48 270.1"/><polygon class="c" points="223.38 276.99 165.21 256.72 160.03 317.79 70.37 178.54 133.73 137.75 223.38 276.99"/><path class="d" d="M226.14,109.65l-20.2,15.76c-3.39,2.65-3.39,7.78,.02,10.42l20.25,15.7c12.71,9.86,5.34,30.22-10.74,29.65l-25.61-.91c-4.3-.15-7.6,3.79-6.69,7.99l5.42,25.04c3.4,15.72-15.34,26.58-27.29,15.81l-19.03-17.16c-3.2-2.88-8.25-1.98-10.26,1.83l-11.95,22.67c-7.5,14.23-28.84,10.5-31.07-5.43l-3.55-25.38c-.6-4.26-5.05-6.82-9.03-5.2l-23.72,9.69c-14.89,6.08-28.84-10.49-20.31-24.13l13.59-21.72c2.28-3.65,.52-8.47-3.58-9.79l-24.4-7.83c-15.32-4.91-15.35-26.58-.05-31.54l24.38-7.9c4.1-1.33,5.84-6.16,3.55-9.8l-13.66-21.68c-8.57-13.61,5.32-30.23,20.23-24.19l23.75,9.61c3.99,1.62,8.43-.96,9.02-5.23l3.47-25.39c2.18-15.94,23.51-19.73,31.05-5.52l12.02,22.63c2.02,3.8,7.08,4.69,10.27,1.79l18.98-17.22c11.92-10.81,30.69,0,27.34,15.73l-5.34,25.06c-.9,4.21,2.41,8.14,6.71,7.97l25.61-.99c16.07-.62,23.51,19.72,10.83,29.62Z"/><circle class="b" cx="119.57" cy="130.78" r="66.19"/><path class="e" d="M113.51,132.82h-5.08v23c0,3.03-.67,5.26-2,6.69-1.33,1.43-3.08,2.15-5.22,2.15-2.31,0-4.1-.75-5.37-2.25s-1.9-3.69-1.9-6.59v-55.08c0-3.12,.7-5.39,2.1-6.79,1.4-1.4,3.66-2.1,6.79-2.1h23.58c3.25,0,6.04,.14,8.35,.42,2.31,.28,4.39,.84,6.25,1.68,2.25,.94,4.23,2.29,5.96,4.05,1.72,1.76,3.04,3.8,3.93,6.13,.89,2.33,1.34,4.79,1.34,7.4,0,5.34-1.51,9.6-4.52,12.79-3.01,3.19-7.58,5.45-13.7,6.79,2.57,1.37,5.03,3.39,7.37,6.05,2.34,2.67,4.43,5.51,6.27,8.52,1.84,3.01,3.27,5.73,4.3,8.15,1.03,2.43,1.54,4.09,1.54,5s-.3,1.88-.9,2.81c-.6,.93-1.42,1.66-2.47,2.2-1.04,.54-2.25,.81-3.61,.81-1.63,0-3-.38-4.1-1.15-1.11-.76-2.06-1.73-2.86-2.91-.8-1.17-1.88-2.9-3.25-5.18l-5.81-9.67c-2.08-3.55-3.95-6.25-5.59-8.11-1.64-1.86-3.31-3.12-5-3.81-1.69-.68-3.83-1.03-6.4-1.03Zm8.3-30.08h-13.38v19.68h12.99c3.48,0,6.41-.3,8.79-.9,2.38-.6,4.19-1.63,5.44-3.08,1.25-1.45,1.88-3.44,1.88-5.98,0-1.99-.5-3.74-1.51-5.25-1.01-1.51-2.41-2.64-4.2-3.39-1.69-.72-5.03-1.07-10.01-1.07Z"/></svg>